<svg xmlns="http://www.w3.org/2000/svg" viewBox="0 0 121 137.66"><defs><style>.cls-1{fill:#606060;}.cls-2{fill:#ebd9c0;}</style></defs><title>bel</title><g id="Layer_2" data-name="Layer 2"><g id="Layer_2-2" data-name="Layer 2"><circle class="cls-1" cx="61.5" cy="121.16" r="16.5"/><circle class="cls-2" cx="61.5" cy="12.16" r="12.16"/><path class="cls-2" d="M121,67.16v44.11a14.39,14.39,0,0,1-14.39,14.39H16.39A14.39,14.39,0,0,1,2,111.27V67.16c0-.5,0-1,0-1.5a59.5,59.5,0,0,1,119,0C121,66.16,121,66.66,121,67.16Z"/><path class="cls-2" d="M0,95.66H0c0,.5,0,1,0,1.5Z"/><path class="cls-2" d="M119,95.66v1.5c0-.5,0-1,0-1.5Z"/></g></g></svg>