<svg id="Layer_2" data-name="Layer 2" xmlns="http://www.w3.org/2000/svg" viewBox="0 0 543 768"><defs><style>.cls-1{fill:#72b4b6;}.cls-2{fill:#3a6361;}.cls-3{fill:#92866e;}</style></defs><title>iam</title><path class="cls-1" d="M669.57,623.93,554.7,696c-19.86,12.45-44.07,25.31-65.48,15.78-24.94-11.1-28.93-44.58-26.49-71.77s6.45-58.3-12.06-78.36C431.76,541.1,397,541.84,378.52,521c-17.78-20-12.89-52.05.86-75.05,28.51-47.73,90.08-71.33,144.42-59.55s99.19,55.73,117,108.41,9.91,112.35-16.33,161.36"/><path class="cls-1" d="M40-16c4.12,36.71,38.12,61.82,69.88,80.7s67.15,39.66,77.86,75c11.6,38.32-12.15,80.24-45.49,102.43S68.08,271.23,28.55,277.66c-19.57,3.18-40.89,6.09-58.18-3.61-26.81-15-30.56-51.41-31.11-82.14q-1.35-75.32-2.71-150.64C-64,8.37-61.52-30.6-33.57-48s70.67,4.6,72.91,37.31"/><path class="cls-2" d="M190.11,760.45c-5.5-21-25.17-36.92-46.66-40.07-11-1.61-22.27-.25-33.37-1.24s-22.83-5-28.9-14.33C68,684.47,89.38,654.69,76.78,634c-10-16.5-37.16-14.54-49.65.2s-12.86,36.48-7.81,55.13S25,727,40,744h0c18.56,25.51,38.13,49.84,66.38,63.88,18.27,9.08,40.14,15.23,58.82,7C185.08,806.14,195.61,781.46,190.11,760.45Z"/><path class="cls-3" d="M311.08,802c-13.39-28.08-26.88-56.46-33.66-86.82s-6.37-63.32,7.31-91.26c15.29-31.23,44.9-52.53,73.35-72.52L524.27,434.68C543.71,421,564.16,407,587.71,403.81c45.11-6,87.22,32.32,98.93,76.31S686.28,571,668.72,613s-40.7,81.9-52.6,125.83C606,776,602.85,818.23,575.59,845.55c-19.73,19.78-48.63,27.54-76.5,29.65-72.65,5.5-147.17-24-196.41-77.67"/><path class="cls-2" d="M549.52,494c-14.72-.68-30-1.28-43.6,4.36s-25,19.41-23,34c3.82,27.11,46.51,34.19,51.21,61.16,1.2,6.92-.45,14.12,1,21s8.21,13.67,14.74,11.12c4.65-1.82,6.55-7.24,7.92-12l20.37-71.81c3.17-11.16,6.36-22.9,3.78-34.22s-13.07-21.73-24.53-19.94"/><path class="cls-2" d="M508.32,416.78a13.33,13.33,0,0,0-7.59-10.45,7,7,0,0,0-9.44,8.49,16.63,16.63,0,0,1,.22,11.4C487.46,459.87,514.25,440.25,508.32,416.78Z"/><path class="cls-2" d="M411.89,539.1a13.32,13.32,0,0,0,6.3,11.27,7,7,0,0,0,10.37-7.31,16.65,16.65,0,0,1,1.14-11.34C437.71,498.78,408.78,515.09,411.89,539.1Z"/><path class="cls-2" d="M458.67,455.12c-11.7-.69-19.55,14.22-21.74,26.59a13.39,13.39,0,0,1-1.65,4.78c-1.68,2.7-1.06,7.21,1.39,11.13a11.32,11.32,0,0,0,1,1.37C459,523.9,479.26,483.28,470,463.22A13.58,13.58,0,0,0,458.67,455.12Z"/><path class="cls-2" d="M-39.63,112.24c-4.49,6.18-6.78,13.79-7.95,21.26a101,101,0,0,0-.12,28.05,137.64,137.64,0,0,0,7.55,30.76,127.59,127.59,0,0,0,15,28.91A96.25,96.25,0,0,0-2.71,244.33a75.34,75.34,0,0,0,30.4,12.9c10,1.82,20.56,1.72,30.12-2.11,8.36-3.36,15.37-9.15,21.13-16,6.2-7.38,11.12-15.73,15.73-24.16,4.91-9,9.48-18.1,14.66-26.91,5-8.51,10.58-16.79,17.61-23.78,2.66-2.65,5.49-5.12,8.17-7.74,3.13-3.08,6.18-6.24,9.11-9.52a140.92,140.92,0,0,0,13.51-17.55c6-9.28,10.65-19.69,11.76-30.76a42.54,42.54,0,0,0-4.76-24.36,52.2,52.2,0,0,0-16.32-17.7,79.38,79.38,0,0,0-22.93-10.8,89.43,89.43,0,0,0-24.64-3.74,55.93,55.93,0,0,0-13.1,1.32,179.73,179.73,0,0,0-23.38,7.16,265,265,0,0,0-43,21.55C7.59,80.49-5.67,89.63-19,98.63c-6.55,4.42-13.11,8.81-19.76,13.07-1.62,1-.11,3.64,1.52,2.6,13.38-8.59,26.42-17.69,39.66-26.49S29,70.6,43,63.39A199.35,199.35,0,0,1,87.49,46.56a44.23,44.23,0,0,1,7.39-1.25c1.88-.15,3.77-.21,5.66-.21A81.28,81.28,0,0,1,112.2,46a86.78,86.78,0,0,1,23.69,7,62.82,62.82,0,0,1,19.56,13.67A41,41,0,0,1,166,86.71c1.75,8.94.07,18.15-3.21,26.54-4.84,12.38-13.1,23.32-22,33.06q-4.44,4.86-9.18,9.42c-2.46,2.36-5,4.61-7.43,7A97.46,97.46,0,0,0,114.85,174c-5.84,8.07-10.66,16.82-15.35,25.6S90.41,217,85.18,225.32c-4.75,7.56-10.22,14.84-17.24,20.45a43.67,43.67,0,0,1-23.83,9.46,67,67,0,0,1-31.9-5.79,79.89,79.89,0,0,1-25.18-18,109.53,109.53,0,0,1-18.19-26,134.94,134.94,0,0,1-10.9-29.59,121,121,0,0,1-3.55-29c0-8.24,1-16.62,4-24.37a36.69,36.69,0,0,1,4.6-8.65c1.14-1.56-1.46-3.06-2.59-1.51Z"/><path class="cls-2" d="M347.26-45.77c20.09,7.9,23.92,35.78,16.38,56S341,47.17,333.52,67.43s-3.42,48.14,16.75,55.82c10.72,4.09,23.44,1.37,33.49,6.88,15,8.21,15.86,28.84,16.92,45.9s8.92,38.28,26,38.42c16.5.13,25.1-20,25.31-36.54s-3-34.78,6.77-48.08c10-13.66,29.47-15.83,46.39-14.72S540,119.26,555.27,112,579,81.27,565.73,70.74c-12.67-10-32-.14-47.25-5.45-14.63-5.09-21.1-23.1-18.94-38.44S510.21-2,517.22-15.86s12.79-29.52,9-44.54c-3.56-14.11-15.43-25.22-29.08-30.28s-28.84-4.65-43.05-1.49c-43.34,9.65-79.45,46.25-88.5,89.72"/><path class="cls-3" d="M316,66.57c14.1,3.76,29.83-5,43.33.52,20.1,8.26,18.63,39.9,36.59,52.14,15.07,10.27,37.09.86,46.64-14.68,6.5-10.59,8.7-22.82,9.51-35.31a45.76,45.76,0,0,0-12.51-34.56C420.32,14.56,390.21-1.47,359.21-3.65c-13.64-1-27.78.47-39.91,6.76s-21.94,18.05-23.41,31.64S302.78,63.05,316,66.57Z"/></svg>