<svg id="Layer_2" data-name="Layer 2" xmlns="http://www.w3.org/2000/svg" viewBox="0 0 543 768"><defs><style>.cls-1,.cls-7{fill:#9c9e9f;}.cls-2{fill:#f5e1dd;}.cls-3{fill:#ebd9c0;}.cls-4{fill:#d3e0f3;}.cls-5{fill:#f8dad7;}.cls-6{fill:#94999d;}.cls-7{stroke:#94999d;stroke-miterlimit:10;}</style></defs><title>iwas</title><path class="cls-1" d="M449.64,270.56c3.41-8.22-.92-18-7.8-23.67s-9.57-13.07-18.17-15.38c-21.27-11.8-38.94-12.71-59.61-10.74-11.43,1.09-24.11,6.41-27.27,17.45-3.57,12.46,6.89,24.53,17.79,31.54a102.49,102.49,0,0,0,73,14.49C436.45,282.64,446.18,278.92,449.64,270.56Z"/><path class="cls-2" d="M373.22,563.75c-21.82-8.16-45.88-6.54-69.09-8.55s-48.34-9.28-60.93-28.89c-18.2-28.35-1.76-67.38-13.85-98.82a57.05,57.05,0,0,0-86.56-25.84c-25.8,18.55-31.46,53.85-36.1,85.29s-13.33,67-41.45,81.77c-22.75,12-52.41,11.14-66.74-10.21l0-.19c-6.64-10-21.41-11.85-32.3-6.83s-18.46,15.21-24.29,25.68c-33,59.4-19.05,140.94,31.88,185.93,28.57,25.24,66,38.8,103.69,44.31s76.09,3.47,114.11.77c47.46-3.36,95.75-8,139.55-26.53s83.13-53.44,95.62-99.35S417.79,580.42,373.22,563.75Z"/><path class="cls-3" d="M497.33,242.18c-21.87-20-38.6-45.57-62.77-62.7-9.72-6.88-21.1-12.43-33.3-10.43a23.14,23.14,0,0,0-15.46,9.29c-7.28,10.48-2.25,22.76,3.47,32.86a215.65,215.65,0,0,0,94.08,87.7,249.65,249.65,0,0,0-95.09,62.78c-9.14,9.71-18,23.32-12.55,35.48,6.31,14,26,14.39,41,10.93,35.53-8.22,67-52.88,93.82-77.59-22.35,26.79-41.23,82-60.2,111.28-14.29,22.08,14.13,46.83,33.85,29.43l.55-.49C503,454.39,516,433.09,527.25,411.31c25-48.58,41-94.81,49.25-148.81C549.38,274.43,519.2,262.15,497.33,242.18Z"/><path class="cls-4" d="M-4.06,8C.56-4.12,15.87-9.37,28.58-6.67S51.83,4.69,61.37,13.52,80.31,31.86,92.26,37c19.88,8.51,42.85,3.32,63.19-4s40.65-16.89,62.28-16.83S263,29.72,265.55,51.2C268,71.54,251.28,89,234.41,100.55s-36.37,22-45,40.57c-5.28,11.34-5.7,24.24-8,36.53s-7.45,25.27-18.45,31.24c-14.39,7.82-33.24-.13-43.06-13.23s-12.89-29.9-15.83-46S97.67,116.75,87.36,104c-12-14.84-31.16-21.47-49-28.19S1.59,60.56-7.75,43.9-10.19.91,8.68-2"/><path class="cls-1" d="M113.65,182.35C108.49,168.7,92.17,161,88.82,146.83c-5-21.15,21.57-38.39,21.05-60.12C109.43,68.48,89,56.07,70.76,57.37c-12.4.89-23.62,6.23-34.24,12.85a45.72,45.72,0,0,0-20.79,30.31c-5.14,27.34-.62,61.16,15.67,87.62,7.17,11.64,16.57,22.3,28.76,28.49s27.45,7.31,39.35.59S118.49,195.13,113.65,182.35Z"/><path class="cls-5" d="M87.2,582.09a123.52,123.52,0,0,1-36.63-49.22c-5.87-14.38-8.79-31.38-1.4-45C58.58,470.45,83,464.88,101,473.05s29.44,27.06,32.93,46.51c2.75,15.32.93,32-8,44.76s-25.84,20.39-40.69,15.76"/><path class="cls-6" d="M488.25,783.72A109.39,109.39,0,0,1,460,743.12a89.73,89.73,0,0,1-5.28-48c2.72-15.51,9.65-30.4,20.49-41.91a69.24,69.24,0,0,1,41.38-21.11c15.57-2,31.7,1.25,44.63,10.34s21.79,23,26.87,37.72A103,103,0,0,1,592.77,727c-2,15.52-7.78,30.85-17.53,43.2a69.27,69.27,0,0,1-36.92,24.23c-14.07,3.68-29.61,3.09-42.85-3.24a54.08,54.08,0,0,1-9-5.49c-1.55-1.15-3,1.45-1.51,2.6,12.26,9.16,28,12.59,43.08,11a72.24,72.24,0,0,0,41.41-18.39c12-11,20-25.86,24-41.53a105.85,105.85,0,0,0,.74-48.95c-3.5-15.87-10.79-31.31-22.31-43a64.33,64.33,0,0,0-43.45-18.93,72.39,72.39,0,0,0-46,14.27c-13.08,9.91-22.47,24-27.52,39.59a90,90,0,0,0-1.56,49.31,108.66,108.66,0,0,0,24,45.08,118.2,118.2,0,0,0,8.87,9c1.42,1.3,3.55-.82,2.12-2.13Z"/><circle class="cls-6" cx="293.3" cy="465.74" r="4.65"/><circle class="cls-6" cx="291.96" cy="478.02" r="4.65"/><circle class="cls-6" cx="279.67" cy="484.33" r="4.65"/><circle class="cls-6" cx="280.65" cy="495.28" r="4.65"/><circle class="cls-6" cx="267.04" cy="501.26" r="4.65"/><circle class="cls-6" cx="287.3" cy="504.74" r="4.65"/><circle class="cls-6" cx="285.96" cy="517.02" r="4.65"/><circle class="cls-6" cx="273.67" cy="523.33" r="4.65"/><circle class="cls-6" cx="274.65" cy="534.28" r="4.65"/><circle class="cls-6" cx="261.04" cy="540.26" r="4.65"/><circle class="cls-6" cx="500.3" cy="331.74" r="4.65"/><circle class="cls-6" cx="498.96" cy="344.02" r="4.65"/><circle class="cls-6" cx="486.67" cy="350.33" r="4.65"/><circle class="cls-6" cx="487.65" cy="361.28" r="4.65"/><circle class="cls-6" cx="474.04" cy="367.26" r="4.65"/><circle class="cls-6" cx="78" cy="645" r="5"/><line class="cls-7" x1="77.5" y1="657" x2="77.5" y2="628"/><line class="cls-7" x1="68.7" y1="632.98" x2="86.3" y2="656.02"/><line class="cls-7" x1="89.92" y1="651.98" x2="65.08" y2="637.02"/><line class="cls-7" x1="92.75" y1="641.8" x2="64.25" y2="647.2"/><line class="cls-7" x1="77.5" y1="662" x2="77.5" y2="633"/><line class="cls-7" x1="69.41" y1="657.54" x2="85.59" y2="633.46"/><circle class="cls-1" cx="68.5" cy="632.5" r="1.5"/><circle class="cls-1" cx="77.5" cy="627.5" r="1.5"/><circle class="cls-1" cx="85.5" cy="633.5" r="1.5"/><circle class="cls-1" cx="92.5" cy="641.5" r="1.5"/><circle class="cls-1" cx="89.5" cy="651.5" r="1.5"/><circle class="cls-1" cx="85.5" cy="655.5" r="1.5"/><circle class="cls-1" cx="69.5" cy="657.5" r="1.5"/><circle class="cls-1" cx="64.5" cy="647.5" r="1.5"/><circle class="cls-1" cx="65.5" cy="637.5" r="1.5"/><circle class="cls-1" cx="77.5" cy="661.5" r="1.5"/><path class="cls-5" d="M433.26-29.19C438-11,429.83,8.25,418.54,23.29s-25.76,27.52-36.61,42.87-17.91,35.27-11.65,53c7.71,21.8,34.42,32.92,57,27.83s40.46-23.09,51.07-43.63,15-43.63,19.31-66.35c2.54-13.48,5.08-27.43,1.94-40.79S486-29.79,472.35-31c-17.74-1.55-31,15.28-40.69,30.23"/></svg>