<?xml version="1.0" encoding="utf-8"?>
<!-- Generator: Adobe Illustrator 24.0.0, SVG Export Plug-In . SVG Version: 6.00 Build 0)  -->
<svg version="1.1" id="Layer_1" xmlns="http://www.w3.org/2000/svg" xmlns:xlink="http://www.w3.org/1999/xlink" x="0px" y="0px"
	 viewBox="0 0 279 746" style="enable-background:new 0 0 279 746;" xml:space="preserve">
<style type="text/css">
	.st0{display:none;}
	.st1{display:inline;fill:#606060;}
	.st2{fill:#5163C6;}
	.st3{fill:#F0F6FC;}
	.st4{fill:#FFFFFF;}
</style>
<g id="Layer_2" class="st0">
	<rect x="2" y="1" class="st1" width="277" height="745"/>
</g>
<g>
	<path class="st2" d="M554.6,120.7L554.6,120.7c0,0-56.2,0-86,0c-12.5-0.9-21.6,2.9-30.1-4.7c-5-4.7-5.6-12.8-1.1-17.8
		c6-8.5,18.4-5.2,86.8-5.8c29.8-0.9,56.5,6.1,71.3-24.9l1.5-3.5V16.6C597,0.2,583.8-13,567.4-13H405v677h192V335
		c-6.5-15.8-17.6-30.8-42.4-32.3v0c0,0-56.2,0-86,0c-12.5-0.9-21.6,2.9-30.1-4.7c-5-4.7-5.6-12.8-1.1-17.8c6-8.5,18.4-5.2,86.8-5.8
		c29.8-0.9,56.5,6.1,71.3-24.9l1.5-3.5V244c-6.5-15.8-17.6-30.8-42.4-32.3v0c0,0-56.2,0-86,0c-12.5-0.9-21.6,2.9-30.1-4.7
		c-5-4.7-5.6-12.8-1.1-17.8c6-8.5,18.4-5.2,86.8-5.8c29.8-0.9,56.5,6.1,71.3-24.9l1.5-3.5V153C590.5,137.2,579.4,122.2,554.6,120.7z
		"/>
	<path class="st3" d="M440.2,101.4c-68.4,0.6-80.8-2.7-86.8,5.8c-4.6,5.1-4,13.1,1.1,17.8c8.5,7.5,17.6,3.8,30.1,4.7
		c29.8,0,86,0,86,0v0c24.9,1.5,35.9,16.5,42.4,32.3c0.1,0.3,0.3,0.7,0.4,1c0-27.8,0-63.3,0-90.9l-0.4,0.9l-1.5,3.5
		C496.7,107.5,470,100.5,440.2,101.4z"/>
	<path class="st3" d="M524.2,183.4c-68.4,0.6-80.8-2.7-86.8,5.8c-4.6,5.1-4,13.1,1.1,17.8c8.5,7.5,17.6,3.8,30.1,4.7
		c29.8,0,86,0,86,0v0c24.9,1.5,35.9,16.5,42.4,32.3c0.1,0.3,0.3,0.7,0.4,1c0-27.8,0-63.3,0-90.9l-0.4,0.9l-1.5,3.5
		C580.7,189.5,554,182.5,524.2,183.4z"/>
	<path class="st3" d="M524.2,274.4c-68.4,0.6-80.8-2.7-86.8,5.8c-4.6,5.1-4,13.1,1.1,17.8c8.5,7.5,17.6,3.8,30.1,4.7
		c29.8,0,86,0,86,0v0c24.9,1.5,35.9,16.5,42.4,32.3c0.1,0.3,0.3,0.7,0.4,1c0-27.8,0-63.3,0-90.9l-0.4,0.9l-1.5,3.5
		C580.7,280.5,554,273.5,524.2,274.4z"/>
</g>
<path class="st4" d="M-44.6,324.5c-3.6,7.9-7.7,15.6-12.3,23.1c-29.8,49.1-95,80-165.9,80h-261.4h-275c-42.2,0-76.5,26.1-76.5,58.3
	v0c0,32.2,34.2,58.3,76.5,58.3h275h249.4c61.8,0,119.6,23.7,153.5,63.1c15.1,17.6,27.5,36.6,36.8,56.8l8.4,18.2v-138v-49.7V494
	v-66.4V306.3L-44.6,324.5z"/>
<path class="st3" d="M1034.3-19.3c-4,4-9.5,6.3-15.1,6.3h-3.1H844.5c-4.7,0-8.5,3.8-8.5,8.5v0c0,4.7,3.8,8.5,8.5,8.5H1016h3.9
	c5.2,0,10.3,1.9,14.2,5.4l2.9,2.6V4v-17v-9L1034.3-19.3z"/>
<circle class="st2" cx="195" cy="85" r="17.6"/>
<path class="st3" d="M1030,33v9.8H847c0,8.4,0,20.5,0,29h183V81h18v-9.2c0-8.4,0-20.5,0-29V33H1030z"/>
<path class="st3" d="M1195.3,204.6c-9.3,6.7-20.5,10.4-32,10.4h-1.3H955.5c-10.8,0-19.5,8.7-19.5,19.5v0c0,10.8,8.7,19.5,19.5,19.5
	H1162l0,0c12.3,0,24.2,4.2,33.9,11.8L1210,277v-23v-39v-21L1195.3,204.6z"/>
</svg>
