<svg id="Layer_1" data-name="Layer 1" xmlns="http://www.w3.org/2000/svg" viewBox="0 0 276.69 88"><defs><style>.cls-1{fill:#0f074f;}</style></defs><title>activated</title><g id="Layer_2" data-name="Layer 2"><g id="Layer_1-2" data-name="Layer 1-2"><path class="cls-1" d="M276.69,0V88c-3.26-3.88-7-10-11-12.94a64.2,64.2,0,0,0-13.11-7.48,44.33,44.33,0,0,0-10.43-2.81,131.54,131.54,0,0,0-20.88-1.58h-202A19.32,19.32,0,0,1,0,43.87v0H0A19.32,19.32,0,0,1,19.32,24.53H221.43a128.19,128.19,0,0,0,20.8-1.6,43.63,43.63,0,0,0,10.33-2.79C261.9,16.19,270.16,7.75,276.69,0Z" transform="translate(0)"/></g></g></svg>