<svg xmlns="http://www.w3.org/2000/svg" viewBox="0 0 276.69 87.99"><defs><style>.cls-1{fill:#f0f6fc;}</style></defs><title>hover</title><g id="Layer_2" data-name="Layer 2"><g id="Layer_1-2" data-name="Layer 1"><path class="cls-1" d="M276.69,0V88c-3.26-3.88-7-10-11-12.94a64.6,64.6,0,0,0-13.11-7.48,44.54,44.54,0,0,0-10.43-2.81,131.45,131.45,0,0,0-20.88-1.58H19.32A19.32,19.32,0,0,1,0,43.85H0A19.32,19.32,0,0,1,19.32,24.53H221.43a128.27,128.27,0,0,0,20.8-1.6,43.58,43.58,0,0,0,10.33-2.79C261.9,16.19,270.16,7.75,276.69,0Z"/></g></g></svg>